<mxfile host="app.diagrams.net" modified="2020-04-23T09:49:41.380Z" agent="5.0 (Macintosh; Intel Mac OS X 10_15_3) AppleWebKit/537.36 (KHTML, like Gecko) Chrome/81.0.4044.113 Safari/537.36" etag="GYDnlDxUNqsRL7mRlk8J" version="13.0.1" type="github">
  <diagram id="IDo3e-sVRfWPB8tgrpqy" name="Page-1">
    <mxGraphModel dx="1188" dy="596" grid="1" gridSize="10" guides="1" tooltips="1" connect="1" arrows="1" fold="1" page="1" pageScale="1" pageWidth="827" pageHeight="1169" math="0" shadow="0">
      <root>
        <mxCell id="0" />
        <mxCell id="1" parent="0" />
        <mxCell id="VchNmsLGofExgvG7CdDW-4" value="Dev" style="shape=rect;html=1;whiteSpace=wrap;align=center;" vertex="1" parent="1">
          <mxGeometry x="440" y="240" width="100" height="30" as="geometry" />
        </mxCell>
        <mxCell id="VchNmsLGofExgvG7CdDW-5" value="Master" style="shape=rect;html=1;whiteSpace=wrap;align=center;" vertex="1" parent="1">
          <mxGeometry x="607" y="240" width="100" height="30" as="geometry" />
        </mxCell>
        <mxCell id="VchNmsLGofExgvG7CdDW-7" value="" style="edgeStyle=none;dashed=1;html=1;endArrow=none;exitX=0.5;exitY=1;exitDx=0;exitDy=0;" edge="1" source="VchNmsLGofExgvG7CdDW-5" parent="1">
          <mxGeometry relative="1" as="geometry">
            <mxPoint x="657" y="880" as="targetPoint" />
          </mxGeometry>
        </mxCell>
        <mxCell id="VchNmsLGofExgvG7CdDW-8" value="TL每周合并" style="edgeStyle=none;html=1;endArrow=open;verticalAlign=bottom;endSize=12;" edge="1" parent="1">
          <mxGeometry relative="1" as="geometry">
            <mxPoint x="490" y="518" as="sourcePoint" />
            <mxPoint x="660" y="518" as="targetPoint" />
          </mxGeometry>
        </mxCell>
        <mxCell id="VchNmsLGofExgvG7CdDW-10" value="" style="edgeStyle=none;html=1;endArrow=open;verticalAlign=bottom;endSize=12;endFill=1;dashed=1;" edge="1" parent="1">
          <mxGeometry relative="1" as="geometry">
            <mxPoint x="660" y="483" as="sourcePoint" />
            <mxPoint x="490" y="483" as="targetPoint" />
          </mxGeometry>
        </mxCell>
        <mxCell id="VchNmsLGofExgvG7CdDW-34" value="pull" style="edgeLabel;html=1;align=center;verticalAlign=middle;resizable=0;points=[];" vertex="1" connectable="0" parent="VchNmsLGofExgvG7CdDW-10">
          <mxGeometry x="0.1067" y="-3" relative="1" as="geometry">
            <mxPoint x="17" as="offset" />
          </mxGeometry>
        </mxCell>
        <mxCell id="VchNmsLGofExgvG7CdDW-25" value="" style="shape=rect;html=1;fillColor=#eeeeee;" vertex="1" parent="1">
          <mxGeometry x="312" y="300" width="20" height="50" as="geometry" />
        </mxCell>
        <mxCell id="VchNmsLGofExgvG7CdDW-26" value="" style="edgeStyle=none;html=1;dashed=1;endArrow=none;exitX=0.5;exitY=1;exitDx=0;exitDy=0;" edge="1" source="VchNmsLGofExgvG7CdDW-48" target="VchNmsLGofExgvG7CdDW-25" parent="1">
          <mxGeometry relative="1" as="geometry">
            <mxPoint x="322" y="300" as="sourcePoint" />
          </mxGeometry>
        </mxCell>
        <mxCell id="VchNmsLGofExgvG7CdDW-27" value="" style="edgeStyle=none;html=1;dashed=1;endArrow=none;" edge="1" source="VchNmsLGofExgvG7CdDW-37" parent="1">
          <mxGeometry x="1" relative="1" as="geometry">
            <mxPoint x="322" y="880" as="targetPoint" />
          </mxGeometry>
        </mxCell>
        <mxCell id="VchNmsLGofExgvG7CdDW-29" value="" style="edgeStyle=none;dashed=1;html=1;endArrow=none;" edge="1" parent="1" source="VchNmsLGofExgvG7CdDW-4">
          <mxGeometry relative="1" as="geometry">
            <mxPoint x="489" y="880" as="targetPoint" />
            <mxPoint x="490" y="270" as="sourcePoint" />
          </mxGeometry>
        </mxCell>
        <mxCell id="VchNmsLGofExgvG7CdDW-39" value="company.project/module/MA.B.C-DX" style="text;html=1;align=center;verticalAlign=middle;resizable=0;points=[];autosize=1;" vertex="1" parent="1">
          <mxGeometry x="1125" y="315" width="210" height="20" as="geometry" />
        </mxCell>
        <mxCell id="VchNmsLGofExgvG7CdDW-40" value="tsingj.privpy/es/M1.0.1-D001.tgz&lt;br&gt;tsingj.privpy/es/M1.0.tgz&lt;br&gt;tsingj.privpy/es/M1.0.1.tgz&lt;br&gt;tsingj.privpy/es/M1.0.1-B001.tgz&lt;br&gt;tsingj.privpy/es/dev-latest.tgz&lt;br&gt;tsingj.privpy/es/master-latest.tgz&lt;br&gt;tsingj.privpy/tc/M1.0.1-D001.tgz&lt;br&gt;tsingj.privpy/ds/M1.0.1-D001.tgz&lt;br&gt;tsingj.console/tm-service/M1.0.1-D001.tgz&lt;br&gt;tsingj.console/miniws/M1.0.1-D001.tgz&lt;br&gt;tsingj.datamarket/backend/M1.0.1-D001.tgz" style="text;html=1;align=left;verticalAlign=middle;resizable=0;points=[];autosize=1;" vertex="1" parent="1">
          <mxGeometry x="1133" y="345" width="250" height="160" as="geometry" />
        </mxCell>
        <mxCell id="VchNmsLGofExgvG7CdDW-41" value="bugfix" style="text;html=1;align=center;verticalAlign=middle;resizable=0;points=[];autosize=1;" vertex="1" parent="1">
          <mxGeometry x="332" y="561.5" width="50" height="20" as="geometry" />
        </mxCell>
        <mxCell id="VchNmsLGofExgvG7CdDW-47" value="feature" style="text;html=1;align=center;verticalAlign=middle;resizable=0;points=[];autosize=1;" vertex="1" parent="1">
          <mxGeometry x="332" y="315" width="50" height="20" as="geometry" />
        </mxCell>
        <mxCell id="VchNmsLGofExgvG7CdDW-48" value="Alice" style="shape=rect;html=1;whiteSpace=wrap;align=center;" vertex="1" parent="1">
          <mxGeometry x="272" y="240" width="100" height="30" as="geometry" />
        </mxCell>
        <mxCell id="VchNmsLGofExgvG7CdDW-49" value="" style="edgeStyle=none;html=1;endArrow=open;verticalAlign=bottom;endSize=12;endFill=1;dashed=1;" edge="1" parent="1">
          <mxGeometry relative="1" as="geometry">
            <mxPoint x="489" y="370" as="sourcePoint" />
            <mxPoint x="320" y="370" as="targetPoint" />
          </mxGeometry>
        </mxCell>
        <mxCell id="VchNmsLGofExgvG7CdDW-50" value="pull" style="edgeLabel;html=1;align=center;verticalAlign=middle;resizable=0;points=[];" vertex="1" connectable="0" parent="VchNmsLGofExgvG7CdDW-49">
          <mxGeometry x="0.1067" y="-3" relative="1" as="geometry">
            <mxPoint as="offset" />
          </mxGeometry>
        </mxCell>
        <mxCell id="VchNmsLGofExgvG7CdDW-51" value="push" style="edgeStyle=none;html=1;endArrow=open;verticalAlign=bottom;endSize=12;" edge="1" parent="1">
          <mxGeometry relative="1" as="geometry">
            <mxPoint x="320" y="400" as="sourcePoint" />
            <mxPoint x="489" y="400" as="targetPoint" />
          </mxGeometry>
        </mxCell>
        <mxCell id="VchNmsLGofExgvG7CdDW-55" value="Bugfix" style="shape=rect;html=1;whiteSpace=wrap;align=center;" vertex="1" parent="1">
          <mxGeometry x="806" y="237.5" width="100" height="30" as="geometry" />
        </mxCell>
        <mxCell id="VchNmsLGofExgvG7CdDW-56" value="" style="edgeStyle=none;dashed=1;html=1;endArrow=none;" edge="1" parent="1" source="VchNmsLGofExgvG7CdDW-58">
          <mxGeometry relative="1" as="geometry">
            <mxPoint x="856" y="880" as="targetPoint" />
            <mxPoint x="856" y="285.5" as="sourcePoint" />
          </mxGeometry>
        </mxCell>
        <mxCell id="VchNmsLGofExgvG7CdDW-57" value="bugfix" style="text;html=1;align=center;verticalAlign=middle;resizable=0;points=[];autosize=1;" vertex="1" parent="1">
          <mxGeometry x="866" y="616.5" width="50" height="20" as="geometry" />
        </mxCell>
        <mxCell id="VchNmsLGofExgvG7CdDW-58" value="" style="shape=rect;html=1;fillColor=#eeeeee;" vertex="1" parent="1">
          <mxGeometry x="846" y="601.5" width="20" height="50" as="geometry" />
        </mxCell>
        <mxCell id="VchNmsLGofExgvG7CdDW-59" value="" style="edgeStyle=none;dashed=1;html=1;endArrow=none;" edge="1" parent="1" source="VchNmsLGofExgvG7CdDW-55" target="VchNmsLGofExgvG7CdDW-58">
          <mxGeometry relative="1" as="geometry">
            <mxPoint x="856" y="807.5" as="targetPoint" />
            <mxPoint x="856" y="267.5" as="sourcePoint" />
          </mxGeometry>
        </mxCell>
        <mxCell id="VchNmsLGofExgvG7CdDW-60" value="" style="edgeStyle=none;html=1;endArrow=open;verticalAlign=bottom;endSize=12;endFill=1;dashed=1;" edge="1" parent="1">
          <mxGeometry relative="1" as="geometry">
            <mxPoint x="660" y="694" as="sourcePoint" />
            <mxPoint x="855" y="694" as="targetPoint" />
          </mxGeometry>
        </mxCell>
        <mxCell id="VchNmsLGofExgvG7CdDW-61" value="pull" style="edgeLabel;html=1;align=center;verticalAlign=middle;resizable=0;points=[];" vertex="1" connectable="0" parent="VchNmsLGofExgvG7CdDW-60">
          <mxGeometry x="0.1067" y="-3" relative="1" as="geometry">
            <mxPoint x="-12.5" y="-14.5" as="offset" />
          </mxGeometry>
        </mxCell>
        <mxCell id="VchNmsLGofExgvG7CdDW-62" value="push" style="edgeStyle=none;html=1;endArrow=open;verticalAlign=bottom;endSize=12;" edge="1" parent="1">
          <mxGeometry relative="1" as="geometry">
            <mxPoint x="855" y="725" as="sourcePoint" />
            <mxPoint x="660" y="725" as="targetPoint" />
          </mxGeometry>
        </mxCell>
        <mxCell id="VchNmsLGofExgvG7CdDW-63" value="" style="edgeStyle=none;html=1;endArrow=open;verticalAlign=bottom;endSize=12;endFill=1;dashed=1;" edge="1" parent="1">
          <mxGeometry relative="1" as="geometry">
            <mxPoint x="489" y="290" as="sourcePoint" />
            <mxPoint x="320" y="290" as="targetPoint" />
          </mxGeometry>
        </mxCell>
        <mxCell id="VchNmsLGofExgvG7CdDW-64" value="pull" style="edgeLabel;html=1;align=center;verticalAlign=middle;resizable=0;points=[];" vertex="1" connectable="0" parent="VchNmsLGofExgvG7CdDW-63">
          <mxGeometry x="0.1067" y="-3" relative="1" as="geometry">
            <mxPoint as="offset" />
          </mxGeometry>
        </mxCell>
        <mxCell id="VchNmsLGofExgvG7CdDW-37" value="" style="shape=rect;html=1;fillColor=#eeeeee;" vertex="1" parent="1">
          <mxGeometry x="312" y="550" width="20" height="43" as="geometry" />
        </mxCell>
        <mxCell id="VchNmsLGofExgvG7CdDW-65" value="" style="edgeStyle=none;html=1;dashed=1;endArrow=none;" edge="1" parent="1" source="VchNmsLGofExgvG7CdDW-25" target="VchNmsLGofExgvG7CdDW-37">
          <mxGeometry x="1" relative="1" as="geometry">
            <mxPoint x="322" y="650" as="targetPoint" />
            <mxPoint x="322" y="350" as="sourcePoint" />
          </mxGeometry>
        </mxCell>
        <mxCell id="VchNmsLGofExgvG7CdDW-70" value="" style="edgeStyle=none;html=1;endArrow=open;verticalAlign=bottom;endSize=12;endFill=1;dashed=1;" edge="1" parent="1">
          <mxGeometry relative="1" as="geometry">
            <mxPoint x="489" y="610" as="sourcePoint" />
            <mxPoint x="320" y="610" as="targetPoint" />
          </mxGeometry>
        </mxCell>
        <mxCell id="VchNmsLGofExgvG7CdDW-71" value="pull" style="edgeLabel;html=1;align=center;verticalAlign=middle;resizable=0;points=[];" vertex="1" connectable="0" parent="VchNmsLGofExgvG7CdDW-70">
          <mxGeometry x="0.1067" y="-3" relative="1" as="geometry">
            <mxPoint as="offset" />
          </mxGeometry>
        </mxCell>
        <mxCell id="VchNmsLGofExgvG7CdDW-72" value="push" style="edgeStyle=none;html=1;endArrow=open;verticalAlign=bottom;endSize=12;" edge="1" parent="1">
          <mxGeometry relative="1" as="geometry">
            <mxPoint x="320" y="640" as="sourcePoint" />
            <mxPoint x="489" y="640" as="targetPoint" />
          </mxGeometry>
        </mxCell>
        <mxCell id="VchNmsLGofExgvG7CdDW-76" value="&lt;span style=&quot;background-color: rgb(0 , 204 , 0)&quot;&gt;master版本发布&lt;/span&gt;" style="edgeStyle=orthogonalEdgeStyle;html=1;align=left;spacingLeft=2;endArrow=block;rounded=0;" edge="1" parent="1">
          <mxGeometry relative="1" as="geometry">
            <mxPoint x="657" y="558" as="sourcePoint" />
            <Array as="points">
              <mxPoint x="697" y="558" />
              <mxPoint x="697" y="588" />
            </Array>
            <mxPoint x="657" y="588" as="targetPoint" />
          </mxGeometry>
        </mxCell>
        <mxCell id="VchNmsLGofExgvG7CdDW-78" value="&lt;span style=&quot;background-color: rgb(0 , 204 , 0)&quot;&gt;product版本发布&lt;br&gt;&lt;/span&gt;" style="edgeStyle=orthogonalEdgeStyle;html=1;align=left;spacingLeft=2;endArrow=block;rounded=0;" edge="1" parent="1">
          <mxGeometry relative="1" as="geometry">
            <mxPoint x="660" y="755" as="sourcePoint" />
            <Array as="points">
              <mxPoint x="700" y="755" />
              <mxPoint x="700" y="785" />
            </Array>
            <mxPoint x="660" y="785" as="targetPoint" />
          </mxGeometry>
        </mxCell>
        <mxCell id="VchNmsLGofExgvG7CdDW-81" value="&lt;span style=&quot;background-color: rgb(0 , 204 , 0)&quot;&gt;dev版本发布&lt;/span&gt;" style="edgeStyle=orthogonalEdgeStyle;html=1;align=left;spacingLeft=2;endArrow=block;rounded=0;fillColor=#00CC00;" edge="1" parent="1">
          <mxGeometry relative="1" as="geometry">
            <mxPoint x="490" y="420" as="sourcePoint" />
            <Array as="points">
              <mxPoint x="530" y="420" />
              <mxPoint x="530" y="450" />
            </Array>
            <mxPoint x="490" y="450" as="targetPoint" />
          </mxGeometry>
        </mxCell>
        <mxCell id="VchNmsLGofExgvG7CdDW-82" value="tsingj.privpy/es:M1.0.1-D001&lt;br&gt;tsingj.privpy/es:M1.0&lt;br&gt;tsingj.privpy/es:M1.0.1&lt;br&gt;tsingj.privpy/es:dev-latest&lt;br&gt;tsingj.privpy/es:master-latest&lt;br&gt;tsingj.console/tm-service:M1.0.1-D001&lt;br&gt;tsingj.datamarket/backend:M1.0.1-D001" style="text;html=1;align=left;verticalAlign=middle;resizable=0;points=[];autosize=1;" vertex="1" parent="1">
          <mxGeometry x="1133" y="521.5" width="230" height="100" as="geometry" />
        </mxCell>
      </root>
    </mxGraphModel>
  </diagram>
</mxfile>
